<?xml version="1.0" standalone="no"?>
<!DOCTYPE svg PUBLIC "-//W3C//DTD SVG 20010904//EN"
 "http://www.w3.org/TR/2001/REC-SVG-20010904/DTD/svg10.dtd">
<svg version="1.0" xmlns="http://www.w3.org/2000/svg"
 width="1199.000000pt" height="1199.000000pt" viewBox="0 0 1199.000000 1199.000000"
 preserveAspectRatio="xMidYMid meet">
<metadata>
Created by potrace 1.14, written by Peter Selinger 2001-2017
</metadata>
<g transform="translate(0.000000,1199.000000) scale(0.100000,-0.100000)"
fill="#000000" stroke="none">
<path d="M9663 7913 c-37 -49 -71 -89 -75 -91 -5 -2 -8 -8 -8 -14 0 -6 -8 -18
-18 -27 -9 -9 -30 -34 -45 -57 -15 -22 -35 -49 -45 -60 -10 -10 -29 -35 -42
-54 -49 -70 -53 -73 -117 -67 -32 3 -69 8 -82 11 -13 3 -52 8 -85 11 -34 3
-68 8 -76 10 -8 3 -33 7 -55 10 -64 8 -128 16 -155 21 -45 8 -125 17 -135 15
-5 0 -77 -3 -160 -5 -82 -2 -166 -6 -185 -9 -19 -3 -57 -8 -85 -11 -119 -13
-179 -27 -335 -78 -196 -64 -272 -96 -380 -162 -65 -40 -91 -59 -164 -119 -21
-18 -45 -36 -53 -41 -8 -4 -24 -17 -35 -28 -14 -14 -23 -16 -32 -9 -27 23
-176 90 -246 111 -41 12 -109 33 -150 46 -100 30 -181 53 -205 58 -11 2 -59
16 -108 30 -48 14 -104 28 -125 30 -20 3 -37 5 -37 6 0 1 -13 4 -30 6 -16 1
-59 8 -95 14 -36 6 -87 13 -115 15 -27 3 -70 8 -95 11 -66 8 -126 13 -202 18
-36 2 -71 7 -77 10 -5 4 -13 2 -16 -4 -4 -7 -12 -7 -18 -2 -11 7 -25 8 -44 2
-19 -5 -50 -4 -70 2 -13 4 -23 4 -23 0 0 -4 -19 -6 -42 -4 -24 1 -47 3 -53 2
-5 0 -75 -2 -155 -4 -196 -5 -280 -13 -395 -41 -33 -8 -75 -17 -92 -20 -18 -3
-48 -7 -65 -10 -39 -7 -45 -8 -258 -76 -91 -29 -167 -53 -170 -54 -3 0 -23 -7
-45 -14 -51 -16 -58 -18 -68 -20 -4 0 -21 -8 -37 -16 -16 -8 -33 -16 -37 -16
-5 0 -39 -15 -78 -33 -38 -18 -103 -45 -143 -60 -40 -16 -94 -44 -120 -65 -26
-20 -83 -54 -127 -76 -44 -22 -82 -43 -83 -47 -2 -5 -12 -8 -22 -8 -11 0 -23
-6 -27 -13 -4 -8 -21 -20 -38 -29 -38 -18 -166 -88 -225 -122 -56 -32 -65 -32
-68 0 -1 14 -5 31 -9 37 -4 7 -8 17 -9 22 -10 62 -33 119 -115 291 -40 82
-238 324 -265 324 -8 0 -14 4 -14 10 0 12 -63 24 -89 15 -11 -3 -46 -36 -77
-73 -31 -37 -64 -76 -73 -88 -10 -11 -26 -35 -37 -52 -10 -18 -22 -32 -26 -32
-4 0 -8 -4 -8 -9 0 -6 -13 -29 -29 -53 -16 -24 -37 -59 -47 -78 -11 -19 -28
-49 -39 -65 -12 -17 -30 -48 -40 -70 -11 -22 -26 -46 -33 -53 -6 -7 -12 -17
-12 -22 0 -13 -140 -302 -161 -331 -10 -14 -16 -29 -12 -33 3 -3 2 -6 -3 -6
-8 0 -44 -82 -49 -110 -1 -3 -11 -36 -24 -75 -12 -38 -24 -77 -26 -85 -2 -8
-17 -69 -34 -135 -18 -66 -34 -136 -37 -155 -3 -19 -9 -42 -13 -50 -4 -8 -7
-35 -7 -60 1 -42 -2 -48 -49 -86 -55 -46 -193 -189 -234 -244 -14 -19 -32 -41
-38 -48 -7 -7 -13 -17 -13 -20 0 -4 -10 -18 -23 -32 -33 -36 -147 -197 -147
-207 0 -4 -11 -25 -25 -46 -14 -20 -22 -37 -18 -37 4 0 3 -4 -4 -8 -14 -9 -76
-134 -93 -187 -7 -22 -15 -47 -18 -55 -3 -8 -6 -20 -8 -27 -1 -6 -7 -27 -12
-45 -24 -75 -33 -145 -23 -172 9 -21 6 -37 -14 -82 -14 -31 -23 -60 -20 -64 3
-5 -2 -16 -11 -24 -8 -9 -13 -16 -10 -16 3 0 -1 -21 -9 -47 -8 -27 -17 -63
-20 -80 -8 -52 -14 -86 -20 -113 -6 -31 -18 -190 -18 -245 1 -137 25 -351 57
-497 3 -16 8 -38 11 -50 14 -68 67 -256 102 -363 25 -77 44 -126 84 -209 11
-22 19 -46 19 -53 0 -7 5 -13 11 -13 5 0 7 -4 4 -10 -3 -5 -2 -10 3 -10 5 0 9
-6 9 -13 0 -19 214 -432 245 -472 20 -27 148 -224 148 -229 0 -3 7 -14 16 -23
8 -10 33 -42 54 -71 65 -91 102 -133 197 -229 l92 -92 -36 -22 c-19 -12 -47
-32 -62 -45 -14 -13 -30 -27 -36 -32 -5 -5 -21 -23 -35 -41 -14 -19 -33 -41
-42 -49 -10 -9 -18 -22 -18 -29 0 -7 -4 -13 -9 -13 -4 0 -24 -26 -44 -57 -19
-32 -44 -67 -54 -78 -58 -64 -169 -263 -271 -486 -53 -115 -88 -245 -68 -253
18 -7 -14 -8 -337 -10 l-309 -1 -19 -24 c-19 -24 -25 -58 -11 -76 22 -30 60
-31 1114 -31 706 1 1068 -2 1068 -9 0 -7 3 -7 8 0 8 11 272 14 272 3 0 -4 6
-5 14 -2 23 9 526 10 526 1 0 -5 4 -5 10 -2 5 3 188 6 406 5 217 0 1874 -2
3681 -3 l3286 -3 24 22 c18 17 22 28 17 52 -4 18 -13 37 -21 43 -11 10 -107
20 -173 19 -215 -5 -810 -3 -810 3 0 4 -8 4 -17 -1 -22 -10 -584 -8 -601 2 -7
4 -12 3 -12 -1 0 -7 -117 -10 -145 -3 -5 1 -12 1 -15 0 -17 -7 -100 -3 -100 5
0 7 -3 7 -8 0 -9 -12 -252 -14 -252 -1 0 5 -6 4 -12 -1 -7 -5 -51 -7 -98 -6
-47 2 -92 3 -100 3 -8 0 -55 -1 -105 -3 -49 -1 -102 1 -117 5 -14 3 -29 4 -32
1 -8 -9 -107 -9 -113 0 -2 4 -10 4 -16 0 -6 -4 -27 -7 -45 -8 l-34 -1 25 21
c13 11 39 31 57 45 18 14 43 34 55 45 13 11 43 36 66 55 88 71 146 125 234
215 116 120 166 175 157 175 -4 0 -2 4 4 8 25 17 206 294 210 321 0 4 7 20 14
36 7 17 30 75 50 130 35 95 38 100 65 98 24 -2 98 31 133 59 6 6 12 7 12 2 0
-5 4 -4 8 1 4 6 32 27 62 47 31 21 66 47 78 58 12 11 22 17 22 13 0 -4 6 0 13
8 6 9 35 33 62 55 73 57 222 210 300 309 22 27 45 55 50 62 6 6 19 23 30 38
11 14 32 41 48 59 15 19 27 38 27 43 0 5 10 20 23 33 12 13 27 32 32 42 6 9
27 45 48 79 21 34 39 67 40 73 1 6 6 14 10 17 5 3 10 12 11 20 3 14 18 49 76
174 30 65 61 142 58 148 0 1 6 27 15 57 8 30 18 69 21 85 3 17 13 62 22 100
34 153 21 213 -53 241 -34 13 -83 17 -233 18 -105 1 -190 -1 -190 -4 0 -3 -24
-5 -53 -6 -28 -1 -76 -4 -106 -8 -57 -8 -68 -10 -146 -26 -27 -5 -66 -12 -85
-14 -19 -3 -35 -5 -35 -6 0 -1 -30 -3 -67 -5 -49 -3 -68 -1 -69 8 0 6 -2 20
-4 29 -2 10 -6 42 -9 70 -3 29 -8 63 -10 76 -3 13 -7 49 -10 80 -6 64 -15 135
-22 172 -3 14 -7 39 -10 55 -7 37 -64 272 -103 420 -16 61 -45 157 -65 215
-21 58 -39 113 -41 122 -2 9 -8 25 -13 35 -6 10 -10 21 -11 26 -1 4 -2 9 -2
12 -1 3 -3 10 -4 15 -1 6 -4 12 -5 15 -1 3 -3 8 -4 13 -1 4 -10 32 -21 62 -10
30 -20 60 -21 65 -4 19 -67 171 -90 217 -13 26 -24 54 -24 62 0 8 -3 16 -7 18
-9 4 -66 123 -65 135 0 4 -5 15 -11 23 -7 8 -20 31 -29 50 -33 72 -86 177
-113 225 -27 48 -132 205 -145 215 -3 3 -34 41 -67 85 -34 44 -70 90 -82 102
-12 12 -21 24 -21 27 0 3 -18 24 -40 46 -22 22 -40 43 -40 45 0 7 -288 293
-354 350 -38 33 -83 74 -101 90 -17 17 -67 58 -111 92 -43 34 -88 70 -99 80
-11 10 -38 32 -60 48 -73 55 -150 118 -153 127 -2 4 -8 6 -13 2 -5 -3 -9 -1
-9 3 0 5 -21 20 -47 33 -26 14 -53 30 -60 35 -7 6 -18 15 -25 21 -7 5 -21 13
-32 17 -25 10 -15 21 97 104 85 63 123 86 217 133 34 18 328 119 363 125 9 2
20 6 25 8 4 3 23 8 42 11 19 3 46 8 60 10 14 3 52 8 85 11 33 4 71 9 85 11 56
10 220 11 261 2 24 -5 53 -10 64 -11 11 0 38 -21 60 -46 22 -25 55 -60 73 -78
18 -18 31 -33 29 -33 -3 0 21 -26 52 -59 82 -86 111 -120 111 -129 0 -8 -81
-120 -115 -159 -5 -7 -18 -23 -27 -35 -10 -13 -57 -75 -106 -138 -124 -163
-134 -179 -134 -205 0 -13 7 -31 16 -40 30 -30 61 -27 158 18 51 24 109 51
128 59 19 9 62 28 95 44 33 15 63 29 68 30 4 1 9 3 12 4 3 1 8 3 13 4 4 1 47
21 95 44 49 23 92 42 97 42 4 0 38 -34 76 -76 38 -42 82 -90 97 -107 16 -17
56 -62 90 -100 112 -126 157 -171 175 -174 23 -4 69 16 76 33 5 12 2 223 -6
531 l-4 122 68 31 c38 16 73 30 78 30 6 0 10 4 10 9 0 5 11 12 24 15 13 3 67
26 120 51 53 25 98 45 100 45 13 0 155 72 163 82 28 36 13 98 -23 98 -8 0 -14
4 -14 9 0 5 -7 8 -16 7 -9 -1 -40 1 -68 6 -28 5 -69 10 -91 13 -22 3 -51 7
-65 10 -14 3 -43 7 -65 10 -22 3 -60 8 -85 11 -25 3 -55 7 -67 8 -12 1 -25 5
-28 8 -4 4 -14 4 -22 1 -23 -9 -29 11 -29 92 1 41 -1 75 -4 75 -7 0 -4 76 4
89 4 6 4 11 -1 11 -4 0 -9 52 -9 115 -2 132 -12 155 -70 155 -30 0 -40 -9
-101 -87z m-713 -463 c0 -5 -2 -10 -4 -10 -3 0 -8 5 -11 10 -3 6 -1 10 4 10 6
0 11 -4 11 -10z m20 -674 c0 -8 -7 -16 -15 -20 -12 -4 -13 -2 -2 14 14 24 17
25 17 6z"/>
</g>
</svg>
